<?xml version="1.0" encoding="UTF-8"?>
<svg id="Layer_1" data-name="Layer 1" xmlns="http://www.w3.org/2000/svg" viewBox="0 0 156.42 171">
  <defs>
    <style>
      .cls-1 {
        fill: none;
        stroke: #efefef;
        stroke-miterlimit: 10;
        stroke-width: 2px;
      }
    </style>
  </defs>
  <rect class="cls-1" x="1" y="113.38" width="154.42" height="19.73" rx="9.87" ry="9.87"/>
  <path class="cls-1" d="M139.12,133.11v7.84c0,6.09-4.94,11.03-11.03,11.03H28.33c-6.09,0-11.03-4.94-11.03-11.03v-7.84"/>
  <path class="cls-1" d="M17.3,113.38v-51.47C17.3,28.27,44.57,1,78.21,1h0c33.64,0,60.91,27.27,60.91,60.91v51.47"/>
  <g>
    <path class="cls-1" d="M83.42,113.38c0-8.93-2.98-19.34-13.39-19.34s-19.34-1.49-19.34-13.39c-7.44,0-19.34-4.46-19.34-17.86,0-8.93,5.95-26.79,47.62-28.27,41.67-1.49,46.13,26.79,46.13,32.74s0,17.86-10.42,17.86c0,11.9-20.83,13.39-20.83,13.39l.61,14.88"/>
    <line class="cls-1" x1="31.85" y1="58.49" x2="55.61" y2="58.49"/>
    <circle class="cls-1" cx="61.1" cy="58.49" r="5.95"/>
    <polyline class="cls-1" points="96.85 64.44 97.33 64.44 124.86 64.44"/>
    <circle class="cls-1" cx="91.38" cy="64.44" r="5.95"/>
    <polyline class="cls-1" points="102.81 83.78 103.28 83.78 119.81 83.78"/>
    <circle class="cls-1" cx="97.33" cy="83.79" r="5.95"/>
    <polyline class="cls-1" points="87.93 48.07 102.76 48.07 108.71 55.35 122.18 55.35"/>
    <circle class="cls-1" cx="82.45" cy="48.07" r="5.95"/>
    <polyline class="cls-1" points="70.49 77.84 59.61 77.84 52.17 68.74 32.25 68.74"/>
    <circle class="cls-1" cx="75.98" cy="77.84" r="5.95"/>
  </g>
  <g>
    <path class="cls-1" d="M99.94,151.98v12.83c0,2.86-2.32,5.18-5.18,5.18h-7.65c-2.86,0-5.18-2.32-5.18-5.18v-12.83"/>
    <path class="cls-1" d="M44.75,151.98v3c0,2.61-2.11,4.72-4.72,4.72h0c-2.61,0-4.72-2.11-4.72-4.72v-3"/>
    <path class="cls-1" d="M70.2,151.98v3c0,2.61-2.11,4.72-4.72,4.72h0c-2.61,0-4.72-2.11-4.72-4.72v-3"/>
    <path class="cls-1" d="M121.1,151.98v3c0,2.61-2.11,4.72-4.72,4.72h0c-2.61,0-4.72-2.11-4.72-4.72v-3"/>
  </g>
</svg>