<?xml version="1.0" encoding="UTF-8"?>
<svg id="Layer_1" data-name="Layer 1" xmlns="http://www.w3.org/2000/svg" viewBox="0 0 154 150.22">
  <defs>
    <style>
      .cls-1 {
        fill: none;
        stroke: #efefef;
        stroke-miterlimit: 10;
        stroke-width: 2px;
      }
    </style>
  </defs>
  <path class="cls-1" d="M32,6.1v89.45s-3.76-6.46-14.72-4.84S1,102.98,1,107.18V17.73C1,13.53,6.32,2.87,17.28,1.26c10.96-1.61,14.72,4.84,14.72,4.84Z"/>
  <path class="cls-1" d="M1,107.18v3.26c0,8.72,7.07,15.79,15.79,15.79h31.35"/>
  <polyline class="cls-1" points="135.02 81.68 135.02 126.24 102.98 126.24"/>
  <polyline class="cls-1" points="32 31.29 135.02 31.29 135.02 52.94"/>
  <g>
    <circle class="cls-1" cx="44.27" cy="48.09" r="4.84"/>
    <path class="cls-1" d="M83.03,48.09c0,.11,0,.22-.01.33-.17,2.52-2.27,4.51-4.83,4.51s-4.62-1.95-4.82-4.44c0-.03,0-.05,0-.07-.01-.11-.02-.22-.02-.33,0-2.67,2.17-4.84,4.84-4.84s4.84,2.17,4.84,4.84Z"/>
    <path class="cls-1" d="M73.34,48.09h-24.22"/>
    <circle class="cls-1" cx="112.09" cy="48.09" r="4.84"/>
    <path class="cls-1" d="M107.25,48.09c-4.47,0-14.08,0-24.22,0"/>
    <path class="cls-1" d="M51.06,72.63c0,2.62-2.08,4.75-4.68,4.84-.05,0-.11,0-.17,0-2.67,0-4.84-2.17-4.84-4.84s2.17-4.84,4.84-4.84c.6,0,1.17.11,1.7.31,1.84.69,3.15,2.46,3.15,4.54Z"/>
    <path class="cls-1" d="M115,72.63c0,2.67-2.17,4.84-4.84,4.84-.05,0-.11,0-.17,0-2.6-.09-4.68-2.22-4.68-4.84,0-2.08,1.31-3.85,3.15-4.54.53-.2,1.1-.31,1.7-.31,2.67,0,4.84,2.17,4.84,4.84Z"/>
    <path class="cls-1" d="M83.01,48.42c12,1.66,21.79,9.41,25.44,19.67"/>
    <path class="cls-1" d="M47.91,68.09c3.65-10.26,13.44-18.01,25.44-19.67"/>
  </g>
  <path class="cls-1" d="M102.98,126.24l-54.83-42.14v65.12h84.74l-29.91-22.98ZM59.13,138.24v-31.86l25.84,19.86,15.62,12h-41.46Z"/>
  <g>
    <line class="cls-1" x1="48.15" y1="100.95" x2="52.38" y2="100.95"/>
    <line class="cls-1" x1="48.15" y1="107.3" x2="52.38" y2="107.3"/>
    <line class="cls-1" x1="48.15" y1="113.65" x2="52.38" y2="113.65"/>
    <line class="cls-1" x1="48.15" y1="120" x2="52.38" y2="120"/>
    <line class="cls-1" x1="48.15" y1="132.7" x2="52.38" y2="132.7"/>
    <line class="cls-1" x1="48.15" y1="139.05" x2="52.38" y2="139.05"/>
    <line class="cls-1" x1="48.15" y1="126.02" x2="52.38" y2="126.02"/>
  </g>
  <g>
    <polygon class="cls-1" points="149.82 57.19 135.02 81.67 120.99 104.89 106.17 115.04 108.27 97.2 135.02 52.94 137.1 49.5 149.82 57.19"/>
    <path class="cls-1" d="M153,49.86c0,1.31-.35,2.64-1.07,3.84l-2.11,3.5-12.72-7.69,2.12-3.5c2.12-3.51,6.69-4.64,10.2-2.52,2.31,1.4,3.59,3.85,3.59,6.37Z"/>
  </g>
  <line class="cls-1" x1="108.27" y1="97.2" x2="120.99" y2="104.89"/>
</svg>