<?xml version="1.0" encoding="UTF-8"?>
<svg id="Layer_1" xmlns="http://www.w3.org/2000/svg" version="1.1" viewBox="0 0 603.5 270.7">
  <!-- Generator: Adobe Illustrator 29.0.0, SVG Export Plug-In . SVG Version: 2.1.0 Build 186)  -->
  <g id="robot">
    <g>
      <path d="M317,108.4l-4.9-55.1c-1.9-21.2-20.6-36.8-41.7-35h0c-21.2,1.9-36.8,20.6-34.9,41.7l4.9,55.1" style="fill: none; stroke: #efefef; stroke-miterlimit: 10; stroke-width: 2px;"/>
      <path d="M245.9,114.9l-5-56.1c-.8-8.5,1.9-16.5,6.8-22.7" style="fill: none; stroke: #efefef; stroke-miterlimit: 10; stroke-width: 2px;"/>
      <rect x="259.8" y="81.5" width="47.6" height="16.3" rx="4.8" ry="4.8" transform="translate(-6.9 25.6) rotate(-5.1)" style="fill: none; stroke: #efefef; stroke-miterlimit: 10; stroke-width: 2px;"/>
      <line x1="276.2" y1="90.5" x2="259.8" y2="91.9" style="fill: none; stroke: #efefef; stroke-miterlimit: 10; stroke-width: 2px;"/>
      <line x1="288.7" y1="89.4" x2="282.8" y2="89.9" style="fill: none; stroke: #efefef; stroke-miterlimit: 10; stroke-width: 2px;"/>
      <line x1="307.3" y1="87.8" x2="294.7" y2="88.9" style="fill: none; stroke: #efefef; stroke-miterlimit: 10; stroke-width: 2px;"/>
      <circle cx="294.7" cy="53.2" r="8.9" style="fill: none; stroke: #efefef; stroke-miterlimit: 10; stroke-width: 2px;"/>
      <circle cx="264.1" cy="55.9" r="8.9" style="fill: none; stroke: #efefef; stroke-miterlimit: 10; stroke-width: 2px;"/>
      <line x1="280.4" y1="54.7" x2="281.8" y2="70.1" style="fill: none; stroke: #efefef; stroke-miterlimit: 10; stroke-width: 2px;"/>
      <path d="M282,72.8c0,2-1,3.4-1.3,3.7-1.3,1.6-3,1.8-3.4,1.9" style="fill: none; stroke: #efefef; stroke-miterlimit: 10; stroke-width: 2px;"/>
      <path d="M270.4,18.3" style="fill: none; stroke: #efefef; stroke-miterlimit: 10; stroke-width: 2px;"/>
      <path d="M222.5,174.3l-3.1-34.8c-.7-12.3,8.5-23.1,20.9-24.2l5.6-.5,6.7-.6,64.6-5.7c12.6-1.1,23.8,8.3,24.9,20.8l1.6,18.6" style="fill: none; stroke: #efefef; stroke-miterlimit: 10; stroke-width: 2px;"/>
      <polyline points="253 139.7 253.4 139.6 272.1 138" style="fill: none; stroke: #efefef; stroke-miterlimit: 10; stroke-width: 2px;"/>
      <polyline points="254.4 155.4 255.2 155.4 273.5 153.8" style="fill: none; stroke: #efefef; stroke-miterlimit: 10; stroke-width: 2px;"/>
      <path d="M236.8,171.2l-2.6-29.5c-.3-3.1-1.9-10.2,4.3-14.6" style="fill: none; stroke: #efefef; stroke-miterlimit: 10; stroke-width: 2px;"/>
      <path d="M274.3,163.1l-.8-9.3-1.4-15.8-.4-4.8c-.5-5.3-5.2-9.2-10.5-8.7-4.9.5-8.6,4.6-8.6,9.5s0,.6,0,.9l.4,4.8,1.4,15.8,1,11.7" style="fill: none; stroke: #efefef; stroke-miterlimit: 10; stroke-width: 2px;"/>
    </g>
    <line x1="277.8" y1="98.5" x2="277.8" y2="98.5" style="fill: none; stroke: #efefef; stroke-miterlimit: 10; stroke-width: 2px;"/>
    <polyline points="219.6 141.5 166.5 147 120.4 90.6 238.7 96.6" style="fill: none; stroke: #efefef; stroke-miterlimit: 10; stroke-width: 2px;"/>
    <polyline points="342 128.8 514.9 110.9 516.1 110.7 517.2 110.6 516.5 110.6 516.2 110.6 369.1 103.1" style="fill: none; stroke: #efefef; stroke-miterlimit: 10; stroke-width: 2px;"/>
    <polygon points="517 110.4 190.1 234.4 142.1 252.6 175.6 184.5 176.6 184.3 517 110.4" style="fill: none; stroke: #efefef; stroke-miterlimit: 10; stroke-width: 2px;"/>
    <polyline points="190.1 234.4 199.6 269.3 517.2 110.6" style="fill: none; stroke: #efefef; stroke-miterlimit: 10; stroke-width: 2px;"/>
    <line x1="176.6" y1="184.3" x2="166.5" y2="147" style="fill: none; stroke: #efefef; stroke-miterlimit: 10; stroke-width: 2px;"/>
    <g>
      <polyline points="316.2 98.7 460.3 60.7 464.9 77.9 332.4 112.8" style="fill: none; stroke: #efefef; stroke-miterlimit: 10; stroke-width: 2px;"/>
      <path d="M464.9,77.9l-4.5-17.2c-.8-3.2,1.1-6.4,4.2-7.2l2.3-.6,7.5,28.7-2.3.6c-3.2.8-6.4-1.1-7.2-4.2h0Z" style="fill: none; stroke: #efefef; stroke-miterlimit: 10; stroke-width: 2px;"/>
      <path d="M507.3,69.8l-1.5-5.7" style="fill: none; stroke: #efefef; stroke-miterlimit: 10; stroke-width: 2px;"/>
      <path d="M502.7,52.7l-2.4-9.2c-.8-3.2-4.1-5-7.2-4.2h0l-22.2,5.8c-3.1.8-5,4.1-4.2,7.2l7.8,29.8c.8,3.2,4.1,5.1,7.2,4.2l19.5-5.1" style="fill: none; stroke: #efefef; stroke-miterlimit: 10; stroke-width: 2px;"/>
      <rect x="467.2" y="43.2" width="28.4" height="11.9" rx="5.7" ry="5.7" transform="translate(3.3 123.8) rotate(-14.7)" style="fill: none; stroke: #efefef; stroke-miterlimit: 10; stroke-width: 2px;"/>
      <polyline points="489 74.3 486.1 63.1 470.6 67.2" style="fill: none; stroke: #efefef; stroke-miterlimit: 10; stroke-width: 2px;"/>
      <g>
        <path d="M501.4,46.7l14.3-3.8c3.2-.8,5-4.1,4.2-7.2-.4-1.6-1.4-2.8-2.8-3.6-1.3-.8-2.9-1-4.5-.6h0c0,0-18.3,4.9-18.3,4.9-1.9.5-3.3,1.8-4,3.5" style="fill: none; stroke: #efefef; stroke-miterlimit: 10; stroke-width: 2px;"/>
        <path d="M533.5,38.4l-18.3,4.8c-3.2.8-6.4-1.1-7.2-4.2h0c-.8-3.2,1.1-6.4,4.2-7.2l18.3-4.8c3.2-.8,6.4,1.1,7.2,4.2h0c.8,3.2-1.1,6.4-4.2,7.2Z" style="fill: none; stroke: #efefef; stroke-miterlimit: 10; stroke-width: 2px;"/>
        <path d="M521.8,66l-18.3,4.8c-3.1.8-5,4.1-4.2,7.2.3,1.3,1.1,2.4,2.1,3.1.2.2.5.3.7.5,1.3.8,2.9,1,4.5.6l18.3-4.8c3.2-.8,5-4.1,4.2-7.2-.4-1.6-1.4-2.8-2.8-3.6s-2.9-1-4.5-.6h0Z" style="fill: none; stroke: #efefef; stroke-miterlimit: 10; stroke-width: 2px;"/>
        <path d="M517.3,48.8l-18.3,4.8c-3.1.8-5,4.1-4.2,7.2.4,1.6,1.4,2.8,2.8,3.6,1.3.8,2.9,1,4.5.6l18.3-4.8c3.2-.8,5-4.1,4.2-7.2-.4-1.6-1.4-2.8-2.8-3.6-1.3-.8-2.9-1-4.5-.6Z" style="fill: none; stroke: #efefef; stroke-miterlimit: 10; stroke-width: 2px;"/>
      </g>
    </g>
    <line x1="438" y1="85" x2="433.5" y2="67.8" style="fill: none; stroke: #efefef; stroke-miterlimit: 10; stroke-width: 2px;"/>
    <line x1="412.1" y1="91.8" x2="407.6" y2="74.6" style="fill: none; stroke: #efefef; stroke-miterlimit: 10; stroke-width: 2px;"/>
    <line x1="386.3" y1="98.6" x2="381.7" y2="81.4" style="fill: none; stroke: #efefef; stroke-miterlimit: 10; stroke-width: 2px;"/>
    <line x1="360.4" y1="105.4" x2="355.9" y2="88.2" style="fill: none; stroke: #efefef; stroke-miterlimit: 10; stroke-width: 2px;"/>
    <g>
      <path d="M170.5,194.9c-5.4-36.8-73.5-16.9-84.3,9.1,9.8-3,14.3,3,13.8,9-.9,12-25.1,16.5-44.5,15.4,22.3,18.3,78.5,22.6,95.8,5.6" style="fill: none; stroke: #efefef; stroke-miterlimit: 10; stroke-width: 2px;"/>
      <path d="M129,198c24-11,29,10,16,17-10.3,5.5-18.7-1.9-33,7,4-11,7.8-19.8,17-24Z" style="fill: none; stroke: #efefef; stroke-miterlimit: 10; stroke-width: 2px;"/>
    </g>
    <g id="antena">
      <line x1="247.1" y1="7.4" x2="270.4" y2="18.3" style="fill: none; stroke: #efefef; stroke-miterlimit: 10; stroke-width: 2px;"/>
      <circle cx="243.3" cy="5.4" r="4.4" style="fill: none; stroke: #efefef; stroke-miterlimit: 10; stroke-width: 2px;"/>
    </g>
    <g id="topce-1">
      <circle cx="181.6" cy="46.7" r="20.1" style="fill: none; stroke: #efefef; stroke-miterlimit: 10; stroke-width: 2px;"/>
      <path d="M169.8,55.1c-3.6-4.8-3.7-11.4-.3-16.3" style="fill: none; stroke: #efefef; stroke-miterlimit: 10; stroke-width: 2px;"/>
      <path d="M198.3,58c-.6-2.5-1.7-5.1-3.1-7.7" style="fill: none; stroke: #efefef; stroke-miterlimit: 10; stroke-width: 2px;"/>
      <path d="M186.1,39.8c-5.9-4.9-12.4-7.6-18.1-7.9" style="fill: none; stroke: #efefef; stroke-miterlimit: 10; stroke-width: 2px;"/>
      <path d="M184.9,49.6c1.1,1.5,2.8,2.3,4.4,2.6,1.8.3,3.7-.2,5.3-1.4.2-.2.4-.3.5-.5,2.5-2.4,2.8-6.4.6-9.2-.6-.7-1.3-1.3-2-1.7-2.3-1.3-5.3-1.2-7.6.5h-.1c-3,2.3-3.5,6.7-1.2,9.7h.1Z" style="fill: none; stroke: #efefef; stroke-miterlimit: 10; stroke-width: 2px;"/>
      <path d="M189.3,52.2c-4,7-9.6,11.8-15.1,13.3" style="fill: none; stroke: #efefef; stroke-miterlimit: 10; stroke-width: 2px;"/>
      <path d="M193.3,30.4c.7,2.6.9,5.7.4,9" style="fill: none; stroke: #efefef; stroke-miterlimit: 10; stroke-width: 2px;"/>
    </g>
  </g>
  <g id="cloud-2">
    <path d="M602.5,222c0,19.3-15.7,35-35,35h-94.9c-14.7,0-26.7-11.9-26.7-26.7s12-26.7,26.7-26.7,11.9,2.1,16.4,5.6c3.5-5.1,9.4-8.5,16.1-8.5s.8,0,1.2,0c-.3-1.6-.5-3.4-.5-5.1,0-14.7,11.9-26.7,26.7-26.7s22.5,8.1,25.7,19.3c3-.8,6.1-1.3,9.3-1.3,19.3,0,35,15.7,35,35h0Z" style="fill: none; stroke: #efefef; stroke-miterlimit: 10; stroke-width: 2px;"/>
    <line x1="570.1" y1="257" x2="567.5" y2="257" style="fill: none; stroke: #efefef; stroke-miterlimit: 10; stroke-width: 2px;"/>
    <path d="M496.3,244h71.4-2.4c12.2,0,22-9.9,22-22" style="fill: none; stroke: #efefef; stroke-miterlimit: 10; stroke-width: 2px;"/>
    <line x1="482.8" y1="244" x2="489" y2="244" style="fill: none; stroke: #efefef; stroke-miterlimit: 10; stroke-width: 2px;"/>
  </g>
  <g id="cloud-1">
    <path d="M87,35.4c0,10.6-8.6,19.2-19.2,19.2H15.7c-8.1,0-14.7-6.6-14.7-14.7s6.6-14.7,14.7-14.7,6.5,1.1,9,3.1c1.9-2.8,5.2-4.7,8.8-4.7s.5,0,.7,0c-.2-.9-.3-1.8-.3-2.8,0-8.1,6.6-14.7,14.7-14.7s12.3,4.5,14.1,10.6c1.6-.5,3.4-.7,5.1-.7,10.6,0,19.2,8.6,19.2,19.2v.2Z" style="fill: none; stroke: #efefef; stroke-miterlimit: 10; stroke-width: 2px;"/>
    <line x1="69.2" y1="54.7" x2="67.8" y2="54.7" style="fill: none; stroke: #efefef; stroke-miterlimit: 10; stroke-width: 2px;"/>
    <polyline points="28.7 46.5 67.9 46.5 66.6 46.5" style="fill: none; stroke: #efefef; stroke-miterlimit: 10; stroke-width: 2px;"/>
    <line x1="21.2" y1="46.5" x2="24.6" y2="46.5" style="fill: none; stroke: #efefef; stroke-miterlimit: 10; stroke-width: 2px;"/>
  </g>
</svg>