<?xml version="1.0" encoding="UTF-8"?>
<svg id="Layer_1" data-name="Layer 1" xmlns="http://www.w3.org/2000/svg" viewBox="0 0 493.4 493.4">
  <defs>
    <style>
      .cls-1 {
        fill: none;
        opacity: .5;
        stroke: #ff6536;
        stroke-miterlimit: 10;
        stroke-width: 2px;
      }
    </style>
  </defs>
  <line class="cls-1" x1="1.2" y1="1" x2="492.2" y2="1"/>
  <line class="cls-1" x1="1.2" y1="55.6" x2="492.2" y2="55.6"/>
  <line class="cls-1" x1="1.2" y1="110.2" x2="492.2" y2="110.2"/>
  <line class="cls-1" x1="1.2" y1="164.8" x2="492.2" y2="164.8"/>
  <line class="cls-1" x1="1.2" y1="219.4" x2="492.2" y2="219.4"/>
  <line class="cls-1" x1="1.2" y1="274" x2="492.2" y2="274"/>
  <line class="cls-1" x1="1.2" y1="328.6" x2="492.2" y2="328.6"/>
  <line class="cls-1" x1="1.2" y1="383.2" x2="492.2" y2="383.2"/>
  <line class="cls-1" x1="1.2" y1="437.8" x2="492.2" y2="437.8"/>
  <line class="cls-1" x1="1.2" y1="492.4" x2="492.2" y2="492.4"/>
  <line class="cls-1" x1="492.4" y1=".7" x2="492.4" y2="492.7"/>
  <line class="cls-1" x1="437.8" y1=".7" x2="437.8" y2="492.7"/>
  <line class="cls-1" x1="383.2" y1=".7" x2="383.2" y2="492.7"/>
  <line class="cls-1" x1="328.6" y1=".7" x2="328.6" y2="492.7"/>
  <line class="cls-1" x1="274" y1=".7" x2="274" y2="492.7"/>
  <line class="cls-1" x1="219.4" y1=".7" x2="219.4" y2="492.7"/>
  <line class="cls-1" x1="164.8" y1=".7" x2="164.8" y2="492.7"/>
  <line class="cls-1" x1="110.2" y1=".7" x2="110.2" y2="492.7"/>
  <line class="cls-1" x1="55.6" y1=".7" x2="55.6" y2="492.7"/>
  <line class="cls-1" x1="1" y1=".7" x2="1" y2="492.7"/>
</svg>