<?xml version="1.0" encoding="UTF-8"?>
<svg id="Layer_1" xmlns="http://www.w3.org/2000/svg" version="1.1" xmlns:xlink="http://www.w3.org/1999/xlink" viewBox="0 0 744.9 555.5">
  <!-- Generator: Adobe Illustrator 29.0.0, SVG Export Plug-In . SVG Version: 2.1.0 Build 186)  -->
  <defs>
    <clipPath id="clippath">
      <rect id="wave-g" x="262.4" y="267.2" width="142.6" height="48.7" rx="14.3" ry="14.3" style="fill: none;"/>
    </clipPath>
  </defs>
  <g id="raka-h">
    <path d="M134.1,482.2h-23c-44.3,0-80.3-36-80.3-80.3v-135.9h35.7v135.9c0,24.6,20,44.7,44.7,44.7h95.1v35.6h-72.2Z" style="fill: none; stroke: #efefef; stroke-miterlimit: 10; stroke-width: 2px;"/>
    <g>
      <path d="M18.8,249.3h59.4v4.8c0,6.6-5.3,11.9-11.9,11.9H30.7c-6.6,0-11.9-5.3-11.9-11.9v-4.8h0Z" style="fill: none; stroke: #efefef; stroke-miterlimit: 10; stroke-width: 2px;"/>
      <rect x="5.8" y="179.2" width="85.6" height="70.1" rx="11.9" ry="11.9" style="fill: none; stroke: #efefef; stroke-miterlimit: 10; stroke-width: 2px;"/>
      <g>
        <path d="M115.1,232.7h-23.8v-23.8h23.8c6.6,0,11.9,5.3,11.9,11.9h0c0,6.6-5.3,11.9-11.9,11.9h0Z" style="fill: none; stroke: #efefef; stroke-miterlimit: 10; stroke-width: 2px;"/>
        <path d="M150,202.3l-26.9,26.9c-4.6,4.6-12.2,4.6-16.8,0h0c-4.6-4.6-4.6-12.2,0-16.8l26.9-26.9c4.6-4.6,12.2-4.6,16.8,0h0c4.6,4.6,4.6,12.2,0,16.8Z" style="fill: none; stroke: #efefef; stroke-miterlimit: 10; stroke-width: 2px;"/>
      </g>
      <g>
        <g>
          <path d="M24.8,149.5v29.7h-7.1c-6.5,0-11.9,5.4-11.9,11.9v5.9c-2.9-2.2-4.8-5.6-4.8-9.5v-38c0-6.5,5.3-11.9,11.9-11.9s6.2,1.3,8.4,3.5c2.2,2.1,3.5,5.1,3.5,8.4h0Z" style="fill: none; stroke: #efefef; stroke-miterlimit: 10; stroke-width: 2px;"/>
          <path d="M24.8,112.7v38c0,6.6-5.3,11.9-11.9,11.9h0c-6.6,0-11.9-5.3-11.9-11.9v-38c0-6.6,5.3-11.9,11.9-11.9h0c6.6,0,11.9,5.3,11.9,11.9Z" style="fill: none; stroke: #efefef; stroke-miterlimit: 10; stroke-width: 2px;"/>
        </g>
        <g>
          <path d="M60.4,149.5v29.7h-23.8v-29.7c0-6.5,5.3-11.9,11.9-11.9s6.2,1.3,8.4,3.5c2.2,2.1,3.5,5.1,3.5,8.4Z" style="fill: none; stroke: #efefef; stroke-miterlimit: 10; stroke-width: 2px;"/>
          <path d="M60.4,112.7v38c0,6.6-5.3,11.9-11.9,11.9h0c-6.6,0-11.9-5.3-11.9-11.9v-38c0-6.6,5.3-11.9,11.9-11.9h0c6.6,0,11.9,5.3,11.9,11.9Z" style="fill: none; stroke: #efefef; stroke-miterlimit: 10; stroke-width: 2px;"/>
        </g>
        <g>
          <path d="M96.1,149.5v38c0,3.9-1.9,7.3-4.8,9.5v-5.9c0-6.5-5.3-11.9-11.9-11.9h-7.1v-29.7c0-6.5,5.3-11.9,11.9-11.9s6.2,1.3,8.4,3.5c2.2,2.1,3.5,5.1,3.5,8.4h0Z" style="fill: none; stroke: #efefef; stroke-miterlimit: 10; stroke-width: 2px;"/>
          <path d="M96.1,112.7v38c0,6.6-5.3,11.9-11.9,11.9h0c-6.6,0-11.9-5.3-11.9-11.9v-38c0-6.6,5.3-11.9,11.9-11.9h0c6.6,0,11.9,5.3,11.9,11.9Z" style="fill: none; stroke: #efefef; stroke-miterlimit: 10; stroke-width: 2px;"/>
        </g>
      </g>
      <line x1="48.5" y1="217.2" x2="48.5" y2="249.3" style="fill: none; stroke: #efefef; stroke-miterlimit: 10; stroke-width: 2px;"/>
      <line x1="25.4" y1="217.3" x2="71.7" y2="217.3" style="fill: none; stroke: #efefef; stroke-miterlimit: 10; stroke-width: 2px;"/>
    </g>
    <g>
      <line x1="111.4" y1="446.6" x2="110.6" y2="482.2" style="fill: none; stroke: #efefef; stroke-miterlimit: 10; stroke-width: 2px;"/>
      <line x1="80.6" y1="434.5" x2="57.3" y2="461.6" style="fill: none; stroke: #efefef; stroke-miterlimit: 10; stroke-width: 2px;"/>
      <line x1="66.7" y1="407.3" x2="31" y2="408.4" style="fill: none; stroke: #efefef; stroke-miterlimit: 10; stroke-width: 2px;"/>
      <line x1="66.3" y1="360.3" x2="30.7" y2="361" style="fill: none; stroke: #efefef; stroke-miterlimit: 10; stroke-width: 2px;"/>
      <line x1="66.3" y1="313.2" x2="30.7" y2="313.6" style="fill: none; stroke: #efefef; stroke-miterlimit: 10; stroke-width: 2px;"/>
    </g>
  </g>
  <path id="mask" d="M236.7,506h-88.4c-7.8,0-14.3-6.4-14.3-14.3v-54.7c0-7.8,6.4-14.3,14.3-14.3h88.4v83.3Z" style="fill: #161e22;"/>
  <g id="topce-h">
    <circle cx="611.9" cy="179.5" r="62" style="fill: none; stroke: #efefef; stroke-miterlimit: 10; stroke-width: 2px;"/>
    <path d="M647.3,189.5c5.5-11.6,2.9-25.5-6.3-34.3-2.3-2.2-2.7-5.8-1-8.5h0c2.3-3.6,7.3-4.1,10.3-1.1,13.3,12.7,17.1,32.8,9.1,49.5-1.8,3.9-6.7,5.1-10.1,2.5h0c-2.5-1.9-3.4-5.3-2-8.2h0Z" style="fill: none; stroke: #efefef; stroke-miterlimit: 10; stroke-width: 2px;"/>
    <path d="M592.9,238.5c-3.3-7.2-5.8-15.6-7-24.7" style="fill: none; stroke: #efefef; stroke-miterlimit: 10; stroke-width: 2px;"/>
    <path d="M587.6,171.4c4.9-23,15.7-42.2,28.8-53.7" style="fill: none; stroke: #efefef; stroke-miterlimit: 10; stroke-width: 2px;"/>
    <path d="M603.5,207.4c22.8,9.3,45.8,10.2,61.8,3.6" style="fill: none; stroke: #efefef; stroke-miterlimit: 10; stroke-width: 2px;"/>
    <path d="M552.4,162.1c3.3,7.7,8.8,15.5,16,22.6" style="fill: none; stroke: #efefef; stroke-miterlimit: 10; stroke-width: 2px;"/>
    <circle cx="628.1" cy="138.8" r="6.9" style="fill: none; stroke: #efefef; stroke-miterlimit: 10; stroke-width: 2px;"/>
    <circle cx="585.2" cy="194.1" r="11.4" style="fill: none; stroke: #efefef; stroke-miterlimit: 10; stroke-width: 2px;"/>
    <circle cx="587.1" cy="192.6" r="21" style="fill: none; stroke: #efefef; stroke-miterlimit: 10; stroke-width: 2px;"/>
    <circle cx="628.1" cy="138.8" r="6.9" style="fill: none; stroke: #efefef; stroke-miterlimit: 10; stroke-width: 2px;"/>
  </g>
  <g id="robot">
    <path d="M238.6,355.8v-165.6c0-63.7,51.6-115.3,115.3-115.3h0c63.6,0,115.3,51.6,115.3,115.3v165.6" style="fill: none; stroke: #efefef; stroke-miterlimit: 10; stroke-width: 2px;"/>
    <path d="M452.7,356.3v-168.6c0-25.6-10-48.8-26.4-66-4.3-4.5-11.6-4.1-15.3.8h0c-3,4-2.7,9.5.8,13.1,12.9,13.6,20.8,31.9,20.8,52v168.6" style="fill: none; stroke: #efefef; stroke-miterlimit: 10; stroke-width: 2px;"/>
    <rect x="262.4" y="267.2" width="142.6" height="48.7" rx="14.3" ry="14.3" style="fill: none; stroke: #efefef; stroke-miterlimit: 10; stroke-width: 2px;"/>
    <rect x="208.3" y="427.3" width="217.4" height="74.3" rx="14.3" ry="14.3" style="fill: none; stroke: #efefef; stroke-miterlimit: 10; stroke-width: 2px;"/>
    <line x1="262.4" y1="291.5" x2="405" y2="291.5" style="fill: none; stroke: #efefef; stroke-miterlimit: 10; stroke-width: 2px;"/>
    <circle cx="290.8" cy="185.2" r="26.7" style="fill: none; stroke: #efefef; stroke-miterlimit: 10; stroke-width: 2px;"/>
    <circle cx="289.1" cy="185.8" r="14.9" style="fill: none; stroke: #efefef; stroke-miterlimit: 10; stroke-width: 2px;"/>
    <circle cx="375.9" cy="185.8" r="14.9" style="fill: none; stroke: #efefef; stroke-miterlimit: 10; stroke-width: 2px;"/>
    <circle cx="382.6" cy="185.2" r="26.7" style="fill: none; stroke: #efefef; stroke-miterlimit: 10; stroke-width: 2px;"/>
    <line x1="333.7" y1="185.8" x2="333.7" y2="232.1" style="fill: none; stroke: #efefef; stroke-miterlimit: 10; stroke-width: 2px;"/>
    <path d="M333.7,240.4c.3,6.1,3.9,9.8,4.8,10.7,4.3,4.3,9.5,4.7,10.7,4.8" style="fill: none; stroke: #efefef; stroke-miterlimit: 10; stroke-width: 2px;"/>
    <line x1="353.9" y1="27.1" x2="353.9" y2="74.7" style="fill: none; stroke: #efefef; stroke-miterlimit: 10; stroke-width: 2px;"/>
    <circle cx="353.9" cy="14.1" r="13.1" style="fill: none; stroke: #efefef; stroke-miterlimit: 10; stroke-width: 2px;"/>
    <circle cx="395.6" cy="107.3" r="10.1" style="fill: none; stroke: #efefef; stroke-miterlimit: 10; stroke-width: 2px;"/>
    <circle cx="462.6" cy="384.2" r="10.1" style="fill: none; stroke: #efefef; stroke-miterlimit: 10; stroke-width: 2px;"/>
    <path d="M538.1,506v48.5H169.7v-129.6c0-37.8,30.9-68.6,68.6-68.6h231c37.1,0,67.5,29.8,68.6,66.5" style="fill: none; stroke: #efefef; stroke-miterlimit: 10; stroke-width: 2px;"/>
    <path d="M474.5,553.9v-120.8c0-6-1.5-11.7-4.3-16.6-2.3-4.1-1.2-9.3,2.4-12.4h0c4.9-4.2,12.4-2.8,15.5,2.9,4.2,7.8,6.6,16.7,6.6,26.1v120.8" style="fill: none; stroke: #efefef; stroke-miterlimit: 10; stroke-width: 2px;"/>
    <path d="M169.7,506h-21.4c-7.8,0-14.3-6.4-14.3-14.3v-54.7c0-7.8,6.4-14.3,14.3-14.3h21.4" style="fill: none; stroke: #efefef; stroke-miterlimit: 10; stroke-width: 2px;"/>
    <rect x="511.9" y="422.8" width="61.8" height="83.2" rx="14.3" ry="14.3" style="fill: none; stroke: #efefef; stroke-miterlimit: 10; stroke-width: 2px;"/>
    <path d="M573.7,446.6h23c44.3,0,80.3,36,80.3,80.3v27.6h-35.7v-27.6c0-24.6-20-44.7-44.7-44.7h-23v-35.6h.1Z" style="fill: none; stroke: #efefef; stroke-miterlimit: 10; stroke-width: 2px;"/>
    <g>
      <line x1="596.4" y1="482.2" x2="597.2" y2="446.6" style="fill: none; stroke: #efefef; stroke-miterlimit: 10; stroke-width: 2px;"/>
      <line x1="627.2" y1="494.3" x2="650.5" y2="467.2" style="fill: none; stroke: #efefef; stroke-miterlimit: 10; stroke-width: 2px;"/>
      <line x1="641.1" y1="521.5" x2="676.8" y2="520.4" style="fill: none; stroke: #efefef; stroke-miterlimit: 10; stroke-width: 2px;"/>
    </g>
    <g>
      <g>
        <path d="M261.7,488v-24h-25.2v24M261.7,464v-24M236.5,439.9v24" style="fill: none; stroke: #efefef; stroke-miterlimit: 10; stroke-width: 2px;"/>
        <path d="M308.3,481.7c-1.3,2.1-3.1,3.8-5.5,5.1s-5.3,2-8.6,2-6.9-.8-9.5-2.5-4.6-3.9-5.9-6.7c-1.4-2.8-2-6-2-9.5s.8-7.1,2.3-9.8c1.5-2.8,3.6-4.9,6.2-6.4s5.5-2.3,8.8-2.3,5.3.6,7.5,1.7,4,2.6,5.4,4.5,2.5,4,3.1,6.4.9,3.4.7,6h-33.6" style="fill: none; stroke: #efefef; stroke-miterlimit: 10; stroke-width: 2px;"/>
        <path d="M328.8,488h-2.7c-2.3,0-4-.2-5.2-.7s-2.1-1.3-2.5-2.6c-.5-1.3-.7-3.2-.7-5.6v-39.1" style="fill: none; stroke: #efefef; stroke-miterlimit: 10; stroke-width: 2px;"/>
        <path d="M346,488h-2.7c-2.3,0-4-.2-5.2-.7s-2.1-1.3-2.5-2.6c-.5-1.3-.7-3.2-.7-5.6v-39.1" style="fill: none; stroke: #efefef; stroke-miterlimit: 10; stroke-width: 2px;"/>
        <path d="M367,488.9c-2.1,0-4.1-.4-6.1-1.1s-3.9-1.8-5.5-3.4-3-3.4-4-5.8-1.5-5.1-1.5-8.4.5-6,1.5-8.4,2.3-4.3,4-5.8,3.5-2.6,5.5-3.4c2-.7,4-1.1,6.1-1.1s4.1.4,6.1,1.1,3.9,1.8,5.5,3.4c1.7,1.5,3,3.4,4,5.8s1.5,5.1,1.5,8.4-.5,6-1.5,8.4-2.3,4.3-4,5.8-3.5,2.6-5.5,3.4-4.1,1.1-6.1,1.1Z" style="fill: none; stroke: #efefef; stroke-miterlimit: 10; stroke-width: 2px;"/>
        <path d="M396.9,488.8c-.2,0-.4,0-.5-.2-.1-.1-.2-.3-.2-.5s0-.4.2-.5c.1-.1.3-.2.5-.2s.4,0,.5.2c.1.1.2.3.2.5s0,.4-.2.5c-.1.1-.3.2-.5.2Z" style="fill: none; stroke: #efefef; stroke-miterlimit: 10; stroke-width: 2px;"/>
      </g>
      <line x1="396.9" y1="439.9" x2="396.9" y2="480.5" style="fill: none; stroke: #efefef; stroke-miterlimit: 10; stroke-width: 2px;"/>
    </g>
    <g>
      <line x1="737.6" y1="554.5" x2="744.9" y2="554.5" style="fill: none; stroke: #efefef; stroke-miterlimit: 10; stroke-width: 2px;"/>
      <line x1="86.1" y1="554.5" x2="723.5" y2="554.5" style="fill: none; stroke: #efefef; stroke-miterlimit: 10; stroke-width: 2px;"/>
      <line x1="43.8" y1="554.5" x2="73" y2="554.5" style="fill: none; stroke: #efefef; stroke-miterlimit: 10; stroke-width: 2px;"/>
      <line x1="13.9" y1="554.5" x2="16.7" y2="554.5" style="fill: none; stroke: #efefef; stroke-miterlimit: 10; stroke-width: 2px;"/>
      <line x1="29.9" y1="554.5" x2="32.7" y2="554.5" style="fill: none; stroke: #efefef; stroke-miterlimit: 10; stroke-width: 2px;"/>
    </g>
  </g>
  <g id="usta">
    <g style="clip-path: url(#clippath);">
      <g id="wave-inner">
        <path id="wave" d="M260.7,281.9c14.3,0,14.3,25,28.5,25s14.3-25,28.5-25,14.3,25,28.5,25,14.3-25,28.5-25,14.3,25,28.5,25" style="fill: none; stroke: #efefef; stroke-miterlimit: 10; stroke-width: 2px;"/>
        <path id="wave1" data-name="wave" d="M146.6,281.9c14.3,0,14.3,25,28.5,25s14.3-25,28.5-25,14.3,25,28.5,25,14.3-25,28.5-25,14.3,25,28.5,25" style="fill: none; stroke: #efefef; stroke-miterlimit: 10; stroke-width: 2px;"/>
        <path id="wave2" data-name="wave" d="M374.2,281.9c14.3,0,14.3,25,28.5,25s14.3-25,28.5-25,14.3,25,28.5,25,14.3-25,28.5-25,14.3,25,28.5,25" style="fill: none; stroke: #efefef; stroke-miterlimit: 10; stroke-width: 2px;"/>
      </g>
    </g>
  </g>
</svg>