<?xml version="1.0" encoding="UTF-8"?>
<svg id="Layer_1" xmlns="http://www.w3.org/2000/svg" version="1.1" viewBox="0 0 865.2 409.7">
  <!-- Generator: Adobe Illustrator 29.0.0, SVG Export Plug-In . SVG Version: 2.1.0 Build 186)  -->
  <defs>
    <style>
      .st0 {
        fill: #efefef;
      }

      .st1 {
        fill: #ff6536;
      }
    </style>
  </defs>
  <g>
    <path class="st0" d="M0,374.6v-121.6h82.5v14.8H17.1v37h48.3v14.8H17.1v40.4h65.4v14.8H0v-.2h0Z"/>
    <path class="st0" d="M129.8,376.8c-6.8,0-13.2-1.9-19.1-5.5-5.9-3.7-10.7-9-14.3-16-3.6-7-5.4-15.5-5.4-25.4s1.8-18.4,5.4-25.4,8.3-12.3,14.3-16c5.9-3.7,12.3-5.5,19.1-5.5s13.2,1.4,18,4.3c4.9,2.9,8.6,6.6,11.3,11.4v-45.5h15.3v87.6c0,3,.1,7.5.4,13.4.2,5.9,1.1,12.8,2.7,20.7h-14.4l-4-13.7c-2.7,4.9-6.4,8.7-11.3,11.6-4.9,2.9-10.9,4.3-18,4.3h0v-.3ZM133.8,363.7c7.8,0,14-3,18.7-8.9s7-14.3,7-25-2.3-19.1-7-25-10.9-8.8-18.7-8.8-14,2.9-18.7,8.8-7,14.2-7,25,2.3,19,7,25,10.9,8.9,18.7,8.9Z"/>
    <path class="st0" d="M232.3,409.6c-4.9,0-9.7-.7-14.5-2.1s-9-3.7-12.8-6.8c-3.7-3.2-6.3-7.2-7.9-12.2l15.3-4.2c1.7,4.7,4.5,7.9,8.4,9.5s7.7,2.4,11.5,2.4c9.4,0,15.7-2.3,19-6.7s5-11.1,5-19.9v-12c-2.8,4.7-6.5,8.5-11.1,11.3s-10.5,4.2-17.7,4.2-12.9-1.7-18.8-5.2c-5.8-3.5-10.5-8.6-14.1-15.3s-5.4-14.9-5.4-24.5,1.8-17.9,5.4-24.6c3.6-6.7,8.3-11.8,14.1-15.3s12.1-5.3,18.8-5.3,13.1,1.4,17.7,4.3,8.3,6.6,11.1,11.4l4.2-14.2h11.1v81.8c0,14.3-2.9,25.2-8.6,32.5s-16,11-30.7,11h0ZM231.4,360.2c4.6,0,8.8-1.1,12.7-3.3,3.8-2.2,6.9-5.6,9.3-10.4,2.4-4.7,3.6-10.9,3.6-18.6s-1.2-13.8-3.6-18.6c-2.4-4.7-5.5-8.2-9.3-10.3-3.8-2.1-8-3.2-12.7-3.2-7.4,0-13.5,2.8-18.3,8.3s-7.2,13.5-7.2,23.8,2.4,18.3,7.2,23.9,10.9,8.4,18.3,8.4h0Z"/>
    <path class="st0" d="M331.4,376.8c-9.5,0-17.5-2.1-24-6.3-6.5-4.2-11.6-9.8-15-16.9s-5.2-15.1-5.2-23.9,1.9-17.9,5.8-24.9,9.1-12.4,15.8-16.2c6.6-3.8,14-5.7,22.3-5.7s13.5,1.4,18.9,4.3c5.5,2.9,10,6.7,13.6,11.5s6.2,10.2,7.8,16.3c1.6,6.1,2.2,12.3,1.7,18.8h-69.6c.2,7.5,1.9,13.5,5,17.8s6.8,7.4,11,9.2,8.2,2.6,11.8,2.6,9.4-.8,12.8-2.5c3.5-1.6,6.2-3.8,8.3-6.5l14.8,4.4c-3.3,5.2-8,9.5-14,12.9-6.1,3.4-13.4,5.1-21.9,5.1h.1ZM303.7,321.5h53.2c0-4.3-1.1-8.3-3.2-12.2-2.1-3.9-5.1-7.1-8.9-9.6s-8.4-3.7-13.8-3.7-8.7.9-12.8,2.5c-4,1.7-7.3,4.4-9.9,8.2-2.6,3.8-4.2,8.7-4.6,14.8h0Z"/>
    <path class="st0" d="M389.4,374.6v-121.6h33.1c9.7,0,18.6,1,26.7,3s15.1,5.3,21,9.9c6,4.6,10.6,10.8,13.8,18.7,3.3,7.8,4.9,17.5,4.9,29s-1.6,21.4-4.9,29.2c-3.3,7.8-7.9,14.1-13.8,18.8-6,4.7-13,8-21,10s-17,3-26.7,3h-33.1ZM406.5,360.2h15.7c6.3,0,12.4-.5,18.3-1.5s11.2-3.1,15.8-6.2c4.7-3.1,8.4-7.8,11.1-14,2.7-6.3,4.1-14.5,4.1-24.9s-1.4-18.5-4.1-24.7-6.4-10.7-11.1-13.8c-4.7-3.1-10-5.2-15.8-6.2-5.9-1-12-1.5-18.3-1.5h-15.7v92.9h0Z"/>
    <path class="st0" d="M514.3,374.6v-78.1h-12.6v-12.2h27.9v90.3h-15.3ZM522,267.2c-3,0-5.7-1.1-7.9-3.4-2.3-2.2-3.4-4.9-3.4-8.1s1.1-5.8,3.4-8,4.9-3.3,7.9-3.3,5.8,1.1,8.1,3.3c2.2,2.2,3.4,4.9,3.4,8s-1.1,5.9-3.4,8.1c-2.3,2.3-5,3.4-8.1,3.4Z"/>
    <path class="st0" d="M588.5,409.6c-4.9,0-9.7-.7-14.5-2.1s-9-3.7-12.8-6.8c-3.7-3.2-6.3-7.2-7.9-12.2l15.3-4.2c1.7,4.7,4.5,7.9,8.4,9.5s7.7,2.4,11.5,2.4c9.3,0,15.7-2.3,19-6.7s5-11.1,5-19.9v-12c-2.8,4.7-6.5,8.5-11.1,11.3s-10.5,4.2-17.7,4.2-12.9-1.7-18.8-5.2c-5.8-3.5-10.5-8.6-14.1-15.3-3.6-6.7-5.4-14.9-5.4-24.5s1.8-17.9,5.4-24.6c3.6-6.7,8.3-11.8,14.1-15.3s12.1-5.3,18.8-5.3,13,1.4,17.7,4.3,8.3,6.6,11.1,11.4l4.2-14.2h11.1v81.8c0,14.3-2.9,25.2-8.7,32.5s-16,11-30.7,11h.1ZM587.6,360.2c4.6,0,8.8-1.1,12.7-3.3,3.8-2.2,6.9-5.6,9.3-10.4,2.4-4.7,3.5-10.9,3.5-18.6s-1.2-13.8-3.5-18.6-5.5-8.2-9.3-10.3c-3.8-2.1-8-3.2-12.7-3.2-7.4,0-13.5,2.8-18.3,8.3s-7.2,13.5-7.2,23.8,2.4,18.3,7.2,23.9,10.9,8.4,18.3,8.4h0Z"/>
    <path class="st0" d="M654.3,374.6v-78.1h-12.6v-12.2h27.9v90.3h-15.3ZM662,267.2c-3,0-5.7-1.1-7.9-3.4-2.3-2.2-3.4-4.9-3.4-8.1s1.1-5.8,3.4-8c2.3-2.2,4.9-3.3,7.9-3.3s5.8,1.1,8.1,3.3c2.2,2.2,3.4,4.9,3.4,8s-1.1,5.9-3.4,8.1c-2.3,2.3-5,3.4-8.1,3.4Z"/>
    <path class="st0" d="M719,374.6c-5.7,0-10.1-.6-13.2-1.7-3.1-1.1-5.2-3.4-6.4-6.6s-1.7-8-1.7-14.2v-55.5h-15.3v-12.2h15.3v-22.8h15.3v22.8h17.5v12.2h-17.5v53c0,4.6.5,7.7,1.4,9.3.9,1.6,3.5,2.4,7.9,2.4h8.2v13.5h-11.5v-.2h0Z"/>
    <path class="st0" d="M772,376.8c-5.7,0-10.9-1-15.7-3.1-4.7-2.1-8.5-5-11.3-8.9s-4.2-8.6-4.2-14,2.5-12.8,7.6-16.9c5-4.1,12.1-7.3,21.3-9.6,9.2-2.2,19.9-4,32.1-5.4.2-7.6-1.3-13.5-4.5-17.7-3.3-4.1-8.6-6.2-15.8-6.2s-9.9,1.3-13.4,3.7c-3.5,2.5-5.7,5.9-6.7,10.3l-14.8-4.4c2.4-6.9,6.8-12.3,13-16.1,6.3-3.8,13.4-5.7,21.6-5.7,12.5,0,21.6,2.9,27.4,8.8,5.8,5.9,8.7,15.1,8.7,27.8v21.1c0,7.5.3,14,.9,19.5.6,5.5,1.3,10.3,2.2,14.6h-14l-3.6-12.4c-2.7,4.5-6.5,8-11.5,10.6s-11.4,3.9-19.3,3.9h0ZM775.3,364.6c4.7,0,9.2-.9,13.5-2.5,4.3-1.7,7.7-4.6,10.4-8.6s4-9.6,4-16.7v-5.6c-9.2,1-17.2,2.2-24,3.5-6.8,1.4-12,3.3-15.8,5.8s-5.5,5.8-5.5,9.9,1.5,7.7,4.6,10.3c3.1,2.6,7.4,3.9,12.8,3.9h0Z"/>
    <path class="st0" d="M858.4,374.6c-5.7,0-10.1-.6-13.2-1.7-3.1-1.1-5.2-3.4-6.4-6.6s-1.7-8-1.7-14.2v-98.9h15.3v96.3c0,4.6.5,7.7,1.5,9.3,1,1.6,3.6,2.4,7.8,2.4h3.5v13.5h-6.8,0Z"/>
  </g>
  <g>
    <polygon class="st1" points="544.7 149.6 470 149.6 470 74.7 544.7 149.6"/>
    <polygon class="st1" points="544.7 74.7 470 74.7 470 0 544.7 74.7"/>
    <polygon class="st1" points="470 74.7 395.1 74.7 395.1 0 470 74.7"/>
    <polygon class="st1" points="517.4 197 442.6 197 320.4 74.7 320.4 0 517.4 197"/>
    <polygon class="st1" points="395.1 197 320.4 197 320.4 122.3 395.1 197"/>
  </g>
</svg>