<?xml version="1.0" encoding="UTF-8"?>
<svg id="Layer_1" xmlns="http://www.w3.org/2000/svg" version="1.1" viewBox="0 0 1779.3 300">
  <!-- Generator: Adobe Illustrator 29.0.0, SVG Export Plug-In . SVG Version: 2.1.0 Build 186)  -->
  <defs>
    <style>
      .st0 {
        fill: #efefef;
      }

      .st1 {
        fill: #ff6536;
      }
    </style>
  </defs>
  <g>
    <path class="st0" d="M366.8,227.7V29.1h134.7v24.1h-106.7v60.4h78.8v24.1h-78.8v66h106.7v24.1h-134.7Z"/>
    <path class="st0" d="M578.7,231.3c-11.1,0-21.5-3-31.2-9.1-9.7-6-17.5-14.8-23.3-26.2s-8.8-25.2-8.8-41.5,2.9-30.1,8.8-41.5c5.8-11.4,13.6-20.1,23.3-26.2,9.7-6,20.1-9.1,31.2-9.1s21.5,2.3,29.4,7,14.1,10.8,18.4,18.6V29.1h25v143c0,5,.2,12.2.6,21.9.4,9.6,1.9,20.9,4.5,33.7h-23.5l-6.5-22.3c-4.4,7.9-10.5,14.2-18.4,18.9-7.9,4.6-17.7,7-29.4,7h0ZM585.3,209.9c12.7,0,22.8-4.9,30.5-14.6,7.6-9.7,11.5-23.3,11.5-40.7s-3.8-31.3-11.5-40.9c-7.6-9.6-17.8-14.4-30.5-14.4s-22.8,4.8-30.5,14.4c-7.6,9.6-11.5,23.2-11.5,40.9s3.8,31,11.5,40.7c7.6,9.7,17.8,14.6,30.5,14.6Z"/>
    <path class="st0" d="M746,284.8c-7.9,0-15.8-1.1-23.6-3.4s-14.8-6-20.8-11.1c-6-5.2-10.4-11.8-12.9-19.9l25-6.8c2.8,7.7,7.3,12.9,13.7,15.5,6.3,2.6,12.6,3.9,18.7,3.9,15.3,0,25.6-3.7,31.1-11,5.5-7.3,8.2-18.1,8.2-32.4v-19.6c-4.6,7.7-10.6,13.9-18.1,18.4-7.5,4.6-17.2,6.8-28.8,6.8s-21.1-2.8-30.6-8.5-17.2-14-23-25-8.8-24.3-8.8-40,2.9-29.2,8.8-40.1c5.8-10.9,13.5-19.2,23-25,9.5-5.8,19.7-8.6,30.6-8.6s21.3,2.3,28.8,7,13.6,10.8,18.1,18.6l6.8-23.2h18.1v133.5c0,23.4-4.7,41.1-14.1,53.1-9.4,12-26.1,18-50.1,18h0v-.2ZM744.5,204.3c7.5,0,14.4-1.8,20.7-5.4s11.3-9.2,15.2-16.9,5.8-17.8,5.8-30.3-1.9-22.6-5.8-30.3c-3.9-7.7-8.9-13.3-15.2-16.8-6.2-3.5-13.1-5.2-20.7-5.2-12.1,0-22,4.5-29.9,13.5-7.8,9-11.7,21.9-11.7,38.8s3.9,29.8,11.7,38.9,17.8,13.7,29.9,13.7h0Z"/>
    <path class="st0" d="M907.8,231.3c-15.5,0-28.5-3.4-39.2-10.3s-18.9-16.1-24.5-27.6c-5.7-11.6-8.5-24.6-8.5-39.1s3.2-29.2,9.5-40.6,14.9-20.2,25.7-26.5c10.8-6.2,22.9-9.4,36.4-9.4s22,2.3,30.9,7,16.3,10.9,22.2,18.7c5.8,7.8,10.1,16.7,12.8,26.6,2.7,9.9,3.6,20.1,2.8,30.6h-113.6c.4,12.3,3.1,22,8.2,29.1,5,7.1,11,12.1,18,15,6.9,2.9,13.4,4.3,19.3,4.3s15.3-1.3,21-4,10.2-6.2,13.5-10.6l24.1,7.1c-5.3,8.5-13,15.6-22.9,21.1-9.9,5.6-21.8,8.3-35.7,8.3h0v.3ZM862.6,140.9h86.8c0-6.9-1.7-13.6-5.2-19.9s-8.3-11.5-14.6-15.6c-6.2-4.1-13.7-6.1-22.5-6.1s-14.3,1.4-20.8,4.2c-6.5,2.8-11.9,7.2-16.2,13.4-4.3,6.2-6.8,14.2-7.6,24.1h0Z"/>
    <path class="st0" d="M1002.5,227.7V29.1h54.1c15.8,0,30.4,1.6,43.6,4.9s24.6,8.7,34.3,16.2c9.7,7.5,17.2,17.7,22.6,30.5s8,28.6,8,47.4-2.7,34.9-8,47.7-12.9,23-22.6,30.6-21.2,13.1-34.3,16.4c-13.2,3.3-27.7,4.9-43.6,4.9h-54.1ZM1030.4,204.3h25.6c10.3,0,20.3-.8,29.9-2.5s18.2-5.1,25.9-10.1c7.6-5.1,13.7-12.7,18.1-22.9s6.7-23.7,6.7-40.6-2.2-30.3-6.7-40.3-10.5-17.5-18.1-22.6c-7.6-5-16.3-8.4-25.9-10.1-9.6-1.7-19.6-2.5-29.9-2.5h-25.6v151.6h0Z"/>
    <path class="st0" d="M1206.5,227.7v-127.5h-20.5v-19.9h45.5v147.5h-25ZM1219,52.3c-5,0-9.3-1.8-12.9-5.5-3.7-3.7-5.5-8.1-5.5-13.2s1.8-9.5,5.5-13.1,8-5.4,12.9-5.4,9.6,1.8,13.2,5.4c3.7,3.6,5.5,7.9,5.5,13.1s-1.8,9.6-5.5,13.2c-3.7,3.7-8.1,5.5-13.2,5.5Z"/>
    <path class="st0" d="M1327.7,284.8c-7.9,0-15.8-1.1-23.6-3.4s-14.8-6-20.8-11.1c-6.1-5.2-10.4-11.8-12.9-19.9l25-6.8c2.8,7.7,7.3,12.9,13.7,15.5,6.3,2.6,12.6,3.9,18.7,3.9,15.3,0,25.6-3.7,31.1-11,5.4-7.3,8.2-18.1,8.2-32.4v-19.6c-4.6,7.7-10.6,13.9-18.1,18.4-7.5,4.6-17.2,6.8-28.8,6.8s-21.1-2.8-30.6-8.5-17.2-14-23-25-8.8-24.3-8.8-40,2.9-29.2,8.8-40.1c5.8-10.9,13.5-19.2,23-25s19.7-8.6,30.6-8.6,21.3,2.3,28.8,7,13.6,10.8,18.1,18.6l6.8-23.2h18.1v133.5c0,23.4-4.7,41.1-14.1,53.1s-26.1,18-50.1,18h0v-.2ZM1326.2,204.3c7.5,0,14.4-1.8,20.7-5.4s11.3-9.2,15.2-16.9,5.8-17.8,5.8-30.3-1.9-22.6-5.8-30.3-8.9-13.3-15.2-16.8c-6.2-3.5-13.1-5.2-20.7-5.2-12.1,0-22.1,4.5-29.9,13.5s-11.7,21.9-11.7,38.8,3.9,29.8,11.7,38.9,17.8,13.7,29.9,13.7h0Z"/>
    <path class="st0" d="M1435.1,227.7v-127.5h-20.5v-19.9h45.5v147.5h-25ZM1447.6,52.3c-5,0-9.3-1.8-12.9-5.5-3.7-3.7-5.5-8.1-5.5-13.2s1.8-9.5,5.5-13.1,8-5.4,12.9-5.4,9.6,1.8,13.2,5.4c3.7,3.6,5.5,7.9,5.5,13.1s-1.8,9.6-5.5,13.2c-3.7,3.7-8.1,5.5-13.2,5.5Z"/>
    <path class="st0" d="M1540.7,227.7c-9.3,0-16.5-.9-21.6-2.8s-8.5-5.5-10.4-10.9-2.8-13.1-2.8-23.2v-90.7h-25v-19.9h25v-37.2h25v37.2h28.5v19.9h-28.5v86.5c0,7.5.7,12.6,2.2,15.2,1.5,2.6,5.8,3.9,12.9,3.9h13.4v22h-18.7Z"/>
    <path class="st0" d="M1627.2,231.3c-9.3,0-17.8-1.7-25.6-5.1-7.7-3.4-13.9-8.2-18.4-14.6-4.6-6.3-6.8-14-6.8-22.9s4.1-20.9,12.3-27.6c8.2-6.7,19.8-11.9,34.8-15.6,15-3.7,32.4-6.6,52.5-8.8.4-12.5-2.1-22.1-7.4-28.8-5.3-6.7-14-10.1-25.9-10.1s-16.2,2-21.8,6.1-9.3,9.7-10.8,16.8l-24.1-7.1c4-11.3,11.1-20.1,21.3-26.3s21.9-9.4,35.2-9.4c20.4,0,35.3,4.8,44.7,14.4,9.4,9.6,14.1,24.7,14.1,45.3v34.5c0,12.3.5,22.9,1.5,31.8,1,8.9,2.2,16.9,3.6,23.8h-22.9l-5.9-20.2c-4.4,7.3-10.6,13.1-18.7,17.4s-18.6,6.4-31.5,6.4h-.2ZM1632.6,211.4c7.7,0,15.1-1.4,22-4.2s12.6-7.5,16.9-14.1c4.4-6.6,6.5-15.7,6.5-27.2v-9.2c-15.1,1.6-28.2,3.5-39.2,5.8-11.1,2.3-19.7,5.4-25.7,9.5-6.1,4.1-9.1,9.5-9.1,16.2s2.5,12.5,7.6,16.8,12,6.4,21,6.4h0Z"/>
    <path class="st0" d="M1768.3,227.7c-9.3,0-16.5-.9-21.6-2.8s-8.5-5.5-10.4-10.9-2.8-13.1-2.8-23.2V29.4h25v157.3c0,7.5.8,12.6,2.4,15.2,1.6,2.6,5.8,3.9,12.8,3.9h5.7v22h-11.1Z"/>
  </g>
  <g>
    <polygon class="st1" points="341.6 227.8 227.8 227.8 227.8 113.9 341.6 227.8"/>
    <polygon class="st1" points="341.6 113.9 227.8 113.9 227.8 0 341.6 113.9"/>
    <polygon class="st1" points="227.8 113.9 113.9 113.9 113.9 0 227.8 113.9"/>
    <polygon class="st1" points="300 300 186.1 300 0 113.9 0 0 300 300"/>
    <polygon class="st1" points="113.8 300 0 300 0 186.1 113.8 300"/>
  </g>
</svg>