<?xml version="1.0" encoding="UTF-8"?>
<svg id="Layer_1" data-name="Layer 1" xmlns="http://www.w3.org/2000/svg" viewBox="0 0 167.84 167.72">
  <defs>
    <style>
      .cls-1 {
        fill: none;
        stroke: #efefef;
        stroke-miterlimit: 10;
        stroke-width: 2px;
      }
    </style>
  </defs>
  <g>
    <polygon class="cls-1" points="118.24 63.16 118.24 104.81 82.73 125.64 47.23 104.81 47.23 63.16 82.73 42.33 118.24 63.16"/>
    <path class="cls-1" d="M82.73,83.98l35.51-20.83-35.51,20.83Z"/>
    <polyline class="cls-1" points="47.23 63.16 82.73 83.98 82.73 125.64"/>
    <polyline class="cls-1" points="60.65 55.28 96.15 76.11 96.22 93.83 106.63 87.72 106.73 69.9 71.23 49.08"/>
  </g>
  <g>
    <polygon class="cls-1" points="35.28 46.08 35.28 55.3 31.52 55.3 31.52 60.08 20.25 60.08 20.25 55.3 16.5 55.3 16.5 46.08 35.28 46.08"/>
    <path class="cls-1" d="M19.06,46.08c0-4.1-.54-5.97-4.28-10.5"/>
    <path class="cls-1" d="M36.56,36.56c.27-.31.53-.62.77-.96,0,0,.01-.01.01-.01,1.71-2.32,2.71-5.18,2.71-8.28,0-7.73-6.27-14-14-14-7.73,0-14,6.27-14,14,0,3.1,1.01,5.96,2.71,8.28,0,0,0,.01.01.01.24.33.5.65.77.96"/>
    <path class="cls-1" d="M33.06,46.08c0-4.1.54-5.97,4.28-10.5"/>
    <line class="cls-1" x1="26.06" y1="29.41" x2="26.06" y2="46.08"/>
    <polyline class="cls-1" points="19.18 25.6 26.06 30.04 32.94 25.6"/>
    <g>
      <line class="cls-1" x1="25.89" x2="25.89" y2="6.86"/>
      <line class="cls-1" x1="11.2" y1="4.03" x2="14.63" y2="9.96"/>
      <line class="cls-1" x1=".5" y1="14.85" x2="6.44" y2="18.28"/>
      <line class="cls-1" x1="40.93" y1="3.94" x2="37.5" y2="9.88"/>
      <line class="cls-1" x1="51.99" y1="14.87" x2="46.05" y2="18.3"/>
    </g>
  </g>
  <g>
    <circle class="cls-1" cx="137.99" cy="137.87" r="13.66"/>
    <path class="cls-1" d="M166.84,143.5v-11.27h-5.62c-.59-2.44-1.55-4.73-2.82-6.81l3.98-3.98-7.97-7.97-3.98,3.98c-2.08-1.27-4.37-2.23-6.81-2.82v-5.62h-11.27v5.62c-2.44.59-4.73,1.55-6.81,2.82l-3.98-3.98-7.97,7.97,3.98,3.98c-1.27,2.08-2.23,4.37-2.82,6.81h-5.62v11.27h5.62c.59,2.44,1.55,4.73,2.82,6.81l-3.98,3.98,7.97,7.97,3.98-3.98c2.08,1.27,4.37,2.23,6.81,2.82v5.62h11.27v-5.62c2.44-.59,4.73-1.55,6.81-2.82l3.98,3.98,7.97-7.97-3.98-3.98c1.27-2.08,2.23-4.37,2.82-6.81h5.62Z"/>
  </g>
  <g>
    <g>
      <path class="cls-1" d="M37.1,137.9c12.28,10.39,28.16,16.65,45.5,16.65,7.96,0,15.61-1.32,22.75-3.75"/>
      <path class="cls-1" d="M28.43,129.18c-10.2-12.23-16.34-27.97-16.34-45.14,0-6.33.84-12.47,2.4-18.31"/>
      <path class="cls-1" d="M38.9,133.55c0,1.7-.69,3.24-1.8,4.35-1.11,1.11-2.65,1.8-4.34,1.8-3.39,0-6.15-2.75-6.15-6.15,0-1.71.7-3.26,1.83-4.37,1.11-1.1,2.64-1.78,4.32-1.78,3.39,0,6.15,2.75,6.15,6.15Z"/>
      <polyline class="cls-1" points="21.43 74.84 14.5 65.69 5.32 72.8"/>
    </g>
    <g>
      <path class="cls-1" d="M128.37,30.07c-12.28-10.39-28.16-16.65-45.5-16.65-7.96,0-15.61,1.32-22.75,3.75"/>
      <path class="cls-1" d="M137.03,38.79c10.2,12.23,16.34,27.97,16.34,45.14,0,6.33-.84,12.47-2.4,18.31"/>
      <path class="cls-1" d="M126.57,34.42c0-1.7.69-3.24,1.8-4.35,1.11-1.11,2.65-1.8,4.34-1.8,3.39,0,6.15,2.75,6.15,6.15,0,1.71-.7,3.26-1.83,4.37-1.11,1.1-2.64,1.78-4.32,1.78-3.39,0-6.15-2.75-6.15-6.15Z"/>
      <polyline class="cls-1" points="144.03 93.13 150.93 102.28 160.11 95.18"/>
    </g>
  </g>
</svg>