<?xml version="1.0" encoding="UTF-8"?>
<svg id="svg1936" xmlns="http://www.w3.org/2000/svg" version="1.1" xmlns:svg="http://www.w3.org/2000/svg" viewBox="0 0 250 100">
  <!-- Generator: Adobe Illustrator 29.0.0, SVG Export Plug-In . SVG Version: 2.1.0 Build 186)  -->
  <defs>
    <style>
      .st0 {
        fill: #221f1f;
      }

      .st1 {
        fill: #f90;
      }
    </style>
  </defs>
  <link xmlns="http://www.w3.org/1999/xhtml" rel="stylesheet" type="text/css" href="../css/svg-style.css"/>
  <g>
    <path class="st1" d="M149.1,67c-11.6,8.6-28.5,13.1-43,13.1s-38.6-7.5-52.5-20c-1.1-1,0-2.3,1.2-1.6,15,8.7,33.4,13.9,52.6,13.9s27-2.6,40.1-8.2c1.9-.8,3.6,1.3,1.7,2.7M154,61.4c-1.5-1.9-9.8-.9-13.5-.5-1.1.2-1.4-.9-.3-1.6,6.6-4.7,17.5-3.4,18.8-1.8s-.3,12.5-6.6,17.8c-1,.8-1.8.4-1.4-.7,1.4-3.5,4.6-11.4,3-13.3"/>
    <path class="st0" d="M140.6,26.5v-4.6c0-.7.6-1.2,1.2-1.2h20.3c.6,0,1.2.5,1.2,1.2v3.9c0,.6-.6,1.5-1.5,2.9l-10.6,15c3.9,0,8.1.5,11.6,2.5.8.5,1,1.1,1.1,1.8v4.9c0,.6-.7,1.4-1.5,1-6.2-3.3-14.6-3.7-21.5,0-.7.4-1.4-.4-1.4-1v-4.6c0-.7,0-2,.8-3.1l12.2-17.5h-10.6c-.6,0-1.2-.5-1.2-1.1M66.4,54.8h-6.2c-.6,0-1-.5-1.1-1v-31.8c0-.6.6-1.1,1.2-1.1h5.8c.6,0,1.1.5,1.1,1v4.2h0c1.5-4,4.3-5.8,8.2-5.8s6.3,1.8,8,5.8c1.5-4,4.9-5.8,8.6-5.8s5.4,1,7.2,3.5c1.9,2.6,1.6,6.6,1.6,10v20.1c0,.6-.6,1.2-1.2,1.2h-6.2c-.6,0-1.1-.6-1.1-1.2v-16.8c0-1.4.2-4.7-.2-5.9-.5-2.2-1.8-2.7-3.7-2.7s-3,1-3.7,2.6c-.6,1.6-.6,4.3-.6,6.1v16.8c0,.6-.6,1.2-1.2,1.2h-6.2c-.6,0-1.1-.6-1.1-1.2v-16.8c0-3.5.6-8.8-3.8-8.8s-4.3,5.1-4.3,8.8v16.8c0,.6-.6,1.2-1.2,1.2M180.8,20.2c9.2,0,14.2,7.9,14.2,17.9s-5.4,17.4-14.2,17.4-13.9-7.9-13.9-17.8,5-17.6,13.9-17.6M180.8,26.6c-4.6,0-4.9,6.2-4.9,10.1s0,12.2,4.8,12.2,5-6.6,5-10.8,0-5.8-1-8.4c-.7-2.2-2.1-3.1-4.1-3.1M206.8,54.8h-6.2c-.6,0-1.1-.6-1.1-1.2v-31.8c0-.6.6-1,1.2-1h5.8c.6,0,1,.4,1.1.9v4.9h0c1.8-4.3,4.2-6.4,8.4-6.4s5.4,1,7.3,3.8c1.6,2.6,1.6,6.8,1.6,9.9v20c0,.6-.6,1-1.2,1h-6.2c-.6,0-1-.5-1.1-1v-17.3c0-3.5.4-8.6-3.9-8.6s-2.9,1-3.6,2.6c-.9,1.9-1,3.9-1,6v17.1c0,.6-.6,1.2-1.2,1.2M124.4,39.6v-1.4c-4.5,0-9.2,1-9.2,6.2s1.4,4.5,3.8,4.5,3.3-1,4.3-2.8c1.2-2.2,1.2-4.2,1.2-6.6M130.7,54.7c-.4.4-1,.4-1.4.2-2.1-1.7-2.4-2.5-3.5-4.1-3.4,3.4-5.8,4.5-10.2,4.5s-9.3-3.2-9.3-9.6,2.7-8.4,6.6-10.2c3.4-1.5,8.1-1.8,11.7-2.2v-.8c0-1.4,0-3.2-.8-4.5-.8-1.1-2.2-1.6-3.5-1.6-2.3,0-4.5,1.2-5,3.7,0,.6-.5,1.1-1,1.1l-6-.6c-.5,0-1-.6-1-1.3,1.4-7.3,7.9-9.5,13.8-9.5s7,.8,9.4,3.1c3,2.8,2.7,6.6,2.7,10.6v9.6c0,2.9,1.2,4.2,2.3,5.8.4.6.5,1.2,0,1.7-1.3,1-3.5,3-4.7,4.1h0M43.2,39.6v-1.4c-4.5,0-9.2,1-9.2,6.2s1.4,4.5,3.8,4.5,3.3-1,4.3-2.8c1.2-2.2,1.2-4.2,1.2-6.6M49.5,54.7c-.4.4-1,.4-1.4.2-2.1-1.7-2.4-2.5-3.5-4.1-3.4,3.4-5.8,4.5-10.2,4.5s-9.4-3.3-9.4-9.7,2.7-8.4,6.6-10.2c3.4-1.5,8.1-1.8,11.7-2.2v-.8c0-1.4,0-3.2-.8-4.5-.8-1.1-2.2-1.6-3.5-1.6-2.3,0-4.5,1.2-5,3.7,0,.6-.5,1.1-1,1.1l-6-.6c-.5,0-1-.6-1-1.3,1.4-7.3,7.9-9.4,13.8-9.4s7,.8,9.4,3.1c3,2.8,2.7,6.6,2.7,10.6v9.6c0,2.9,1.2,4.2,2.3,5.8.4.6.5,1.2,0,1.7-1.3,1-3.5,3-4.7,4.1h0"/>
  </g>
</svg>