<?xml version="1.0" encoding="UTF-8"?>
<svg id="Layer_1" xmlns="http://www.w3.org/2000/svg" version="1.1" viewBox="0 0 250 100">
  <!-- Generator: Adobe Illustrator 29.0.0, SVG Export Plug-In . SVG Version: 2.1.0 Build 186)  -->
  <defs>
    <style>
      .st0 {
        fill: #d81f26;
      }
    </style>
  </defs>
  <path class="st0" d="M52.5,73.6c-3,.6-6.1.7-9.2,1.1l-9.7-28.3v29.5c-3,.3-5.8.8-8.6,1.2V23h8l11,30.6v-30.6h8.5v50.6h0ZM69.2,42.8c3.3,0,8.3-.2,11.3-.2v8.4c-3.8,0-8.2,0-11.3.2v12.6c5-.3,9.9-.7,15-.9v8.2l-23.4,1.8V23h23.4v8.4h-15v11.4h0ZM115.5,31.5h-8.8v38.9c-2.9,0-5.7,0-8.4,0V31.5h-8.8v-8.4h26v8.4ZM129.2,42.2h11.6v8.4h-11.6v19.2h-8.3V23h23.6v8.4h-15.3v10.8h0ZM158.2,62.4c4.8,0,9.7.5,14.3.7v8.3c-7.5-.5-15.1-1-22.8-1.1V23h8.4v39.4h0ZM179.7,72.1c2.7.2,5.5.3,8.3.6V23h-8.3s0,49.1,0,49.1ZM225,23l-10.7,25.7,10.7,28.3c-3.2-.4-6.3-1-9.5-1.5l-6.1-15.6-6.2,14.3c-3-.6-6-.7-9.1-1.1l10.9-24.8-9.8-25.4h9.1l5.5,14.2,5.9-14.2h9.3Z"/>
</svg>