<?xml version="1.0" encoding="UTF-8"?>
<svg id="Layer_1" xmlns="http://www.w3.org/2000/svg" version="1.1" viewBox="0 0 250 100">
  <!-- Generator: Adobe Illustrator 29.0.0, SVG Export Plug-In . SVG Version: 2.1.0 Build 186)  -->
  <path d="M54.8,82.2c-5.3-.2-9.7-1.6-13.2-4.4-.7-.5-2.2-2.1-2.7-2.7-1.4-1.7-2.4-3.4-2.9-5.3-2-5.8-1-13.4,2.9-21.9,3.3-7.2,8.3-14.2,17-24.2,1.3-1.5,5.2-5.7,5.2-5.7,0,0-.2.3-.5.8-2.3,3.8-4.3,8.4-5.3,12.2-1.7,6.2-1.5,11.6.6,15.7,1.5,2.9,3.9,5.3,6.7,6.7,4.9,2.4,12,2.6,20.8.6.6-.2,30.5-8.1,66.4-17.6,35.9-9.6,65.3-17.4,65.3-17.4,0,0-83.4,35.7-126.8,54.2-6.9,2.9-8.7,3.7-12,4.8-8.3,2.9-15.6,4.3-21.6,4h.2Z"/>
</svg>