<?xml version="1.0" encoding="UTF-8"?>
<svg id="svg2" xmlns="http://www.w3.org/2000/svg" version="1.1" xmlns:svg="http://www.w3.org/2000/svg" viewBox="0 0 250 100">
  <!-- Generator: Adobe Illustrator 29.0.0, SVG Export Plug-In . SVG Version: 2.1.0 Build 186)  -->
  <defs>
    <style>
      .st0 {
        fill: #77b900;
      }
    </style>
  </defs>
  <path d="M189.3,95c0,1.4-1,2.3-2.2,2.3h0c-1.3,0-2.3-.9-2.3-2.3s1-2.3,2.3-2.3,2.2.9,2.2,2.3h0ZM190.2,95c0-1.9-1.5-3-3.2-3s-3.2,1.1-3.2,3,1.5,3,3.2,3,3.2-1.1,3.2-3M186.5,95.2h.3l.8,1.4h.9l-.9-1.4c.4,0,.8-.3.8-.9s-.5-1-1.4-1h-1.3v3.3h.7v-1.4M186.5,94.7v-.8h.5c.3,0,.7,0,.7.4s-.2.4-.5.4h-.6M168.9,78.2l3.9,10.8h-8l4-10.8ZM164.7,74l-9.1,23h6.4l1.4-4h10.7l1.4,4h6.9l-9.1-23h-8.7ZM146.5,97h6.5v-23h-6.5v23ZM101.5,74l-5.4,18.2-5.2-18.2h-7l7.4,23h9.3l7.5-23h-6.6,0ZM127.7,79h2.8c4,0,6.7,1.8,6.7,6.5s-2.6,6.5-6.7,6.5h-2.8v-13.1h0ZM121.3,74v23h10.5c5.6,0,7.4-.9,9.4-3,1.4-1.5,2.3-4.7,2.3-8.2s-.8-6.1-2.1-7.9c-2.4-3.2-5.9-3.8-11.1-3.8h-9.1,0ZM59.8,74v23h6.5v-17.5h5.1c1.7,0,2.9.4,3.7,1.3,1,1.1,1.4,2.9,1.4,6.1v10.1h6.3v-12.7c0-9.1-5.8-10.3-11.4-10.3h-11.6ZM110.8,74v23h6.5v-23h-6.5Z"/>
  <path id="path21" class="st0" d="M102.3,2v8.2c.6,0,1.1,0,1.6-.1,21-.7,34.6,17.2,34.6,17.2,0,0-15.7,19.1-32.1,19.1h-4c-.1,0-.2.1-.2.2v4.5c1.1.1,2.3.2,3.5.2,15.2,0,26.2-7.8,36.9-17,1.8,1.4,9,4.9,10.5,6.4-10.1,8.5-33.8,15.3-47.1,15.3h-3.6c0,0-.2,0-.2.2v6.8h57.9V2h-57.9ZM102.2,14.7v-4.5c-18.5,1.5-34.5,17.1-34.5,17.1,0,0,9.1,26.2,34.5,28.6v-4.7c-18.6-2.3-25-22.9-25-22.9,0,0,8.3-12.3,25-13.6Z"/>
  <path class="st0" d="M128.9,27.6c-.4.6-10.9,14.8-22.1,14.8h-4.5v3.7c-14.1-2.5-18-17.1-18-17.1,0,0,6.8-7.5,18-8.7v4.8c-.4,0-.7,0-1,0-5.4,0-9.5,4.9-9.5,4.9,0,0,2.6,9.3,10.5,11.9v-16.7c5.9.7,7,3.3,10.6,9.2l7.9-6.6s-5.7-7.5-15.4-7.5h-3c0,0,0,0,0,0v-5.2c.5,0,1.1,0,1.6,0,14.8-.5,24.6,12.4,25,13h0Z"/>
  <path class="st0" d="M128.9,27.6h0Z"/>
</svg>