<?xml version="1.0" encoding="UTF-8"?>
<svg id="svg3362" xmlns="http://www.w3.org/2000/svg" version="1.1" xmlns:cc="http://creativecommons.org/ns#" xmlns:dc="http://purl.org/dc/elements/1.1/" xmlns:inkscape="http://www.inkscape.org/namespaces/inkscape" xmlns:rdf="http://www.w3.org/1999/02/22-rdf-syntax-ns#" xmlns:sodipodi="http://sodipodi.sourceforge.net/DTD/sodipodi-0.dtd" xmlns:svg="http://www.w3.org/2000/svg" viewBox="0 0 250 100">
  <!-- Generator: Adobe Illustrator 29.0.0, SVG Export Plug-In . SVG Version: 2.1.0 Build 186)  -->
  <defs>
    <style>
      .st0 {
        fill: #e2007a;
      }
    </style>
  </defs>
  <path id="layer1" class="st0" d="M190.2,46.8h16.2v16.2h-16.2v-16.2ZM141.4,46.8h16.2v16.2h-16.2v-16.2ZM92.6,46.8h16.2v16.2h-16.2s0-16.2,0-16.2ZM82.3,72.9c0,5.1.7,8.5,2.3,10,1.3,1.3,3.4,2.1,6.5,2.4.9,0,2.5.1,4.6.1v4.5h-39.2v-4.5c3.2,0,5.5-.2,6.9-.5,3-.6,5-2.4,5.8-5.3.4-1.5.6-3.8.6-6.8V13.8c-6.7.2-11.8,2.4-15.6,6.6-3.6,4.1-5.8,10.2-6.5,18.6l-4.2-.7.8-28.3h63.7l.8,28.3-4.2.7c-.8-8.3-3-14.5-6.5-18.6-3.8-4.2-9-6.4-15.7-6.6v59.1h0ZM43.6,46.8h16.2v16.2h-16.2v-16.2Z"/>
</svg>