<?xml version="1.0" encoding="UTF-8"?>
<svg id="Layer_1" xmlns="http://www.w3.org/2000/svg" version="1.1" viewBox="0 0 250 100">
  <!-- Generator: Adobe Illustrator 29.0.0, SVG Export Plug-In . SVG Version: 2.1.0 Build 186)  -->
  <defs>
    <style>
      .st0 {
        fill: #eb0a1e;
      }
    </style>
  </defs>
  <path class="st0" d="M77.5,75.2h-19.1v4.2h7v17.9h5v-17.9h7v-4.2M96.2,89.8c-.7,1.9-2.6,3.4-4.6,3.7h-2.3c-2.1-.4-3.8-1.8-4.6-3.7-.4-1.2-.6-2.3-.6-3.5s.2-2.5.6-3.5c.7-1.9,2.6-3.4,4.6-3.7.7-.1,1.6-.1,2.3,0,2.1.4,3.8,1.8,4.6,3.7.9,2.3.9,4.8,0,7.1M90.4,74.5c-6.5,0-11.7,5.2-11.7,11.7s5.2,11.7,11.7,11.7,11.7-5.2,11.7-11.7-5.2-11.7-11.7-11.7h0ZM102.3,75.2h5.9l5.4,9.5,5.4-9.5h5.9l-8.9,14v8.2h-5v-8.2l-8.9-14M136.9,93.6h1.2c2.1-.3,3.8-1.8,4.6-3.7.9-2.3.9-4.8,0-7.1-.7-1.9-2.6-3.4-4.6-3.7-.7-.1-1.6-.1-2.3,0-2.1.4-3.8,1.8-4.6,3.7-.4,1.2-.6,2.3-.6,3.5s.2,2.5.6,3.5c.7,1.9,2.6,3.4,4.6,3.7.4,0,.7,0,1.2.1M125.1,86.3c0-6.5,5.2-11.7,11.7-11.7s11.7,5.2,11.7,11.7-5.2,11.7-11.7,11.7-11.7-5.2-11.7-11.7h0ZM182.6,88.5l-3.3-8.7-3.3,8.7h6.5M184,92.5h-9.5l-1.8,4.9h-5.5l9-22.2h6.2l9,22.2h-5.5l-1.8-4.9h.1ZM168.7,75.2h-19.1v4.2h7v17.9h5v-17.9h7v-4.2M146.8,5.1c-6.1-1.9-13.7-3.1-21.9-3.1s-15.8,1.2-21.9,3.1c-16.2,5.2-27.3,16-27.3,28.5s22,31.8,49.2,31.8,49.2-14.2,49.2-31.8-11.1-23.3-27.3-28.5h0ZM125,51.7c-4.1,0-7.4-7.9-7.6-17.9,2.5.2,4.9.3,7.6.3s5.1-.1,7.6-.3c-.2,10-3.5,17.9-7.6,17.9ZM117.9,25.9c1.1-7,3.8-12.1,7-12.1s5.9,4.9,7,12.1c-2.2.2-4.6.3-7,.3s-4.8-.1-7-.3h0ZM136.3,25.4c-1.6-11-6.1-18.9-11.3-18.9s-9.7,7.9-11.3,18.9c-9.9-1.6-17-5.1-17-9.2s12.7-10.1,28.3-10.1,28.3,4.5,28.3,10.1-6.9,7.7-17,9.2h0ZM83,32.4c0-5.4,2.1-10.5,5.8-14.8v.9c0,6.8,10.1,12.5,24.3,14.6v1.5c0,12.6,3.5,23.3,8.3,26.9-21.4-1.3-38.3-13.9-38.3-29.2h0v.2ZM128.6,61.6c4.8-3.6,8.3-14.3,8.3-26.9v-1.5c14.2-2.1,24.3-7.9,24.3-14.6s0-.6,0-.9c3.6,4.4,5.8,9.4,5.8,14.8,0,15.3-16.9,27.8-38.3,29.2h0v-.2Z"/>
</svg>